HIERARCHY
ROOT Hips
{
  OFFSET 5.80788e-005 67.184 3.4734
  CHANNELS 6 Xposition Yposition Zposition Zrotation Xrotation Yrotation
  JOINT Chest
  {
    OFFSET 0 8.7983 -4.7612
    CHANNELS 6 Xposition Yposition Zposition Zrotation Xrotation Yrotation
    JOINT Chest2
    {
      OFFSET 0 8.0291 0.4195
      CHANNELS 6 Xposition Yposition Zposition Zrotation Xrotation Yrotation
      JOINT Chest3
      {
        OFFSET 0 9.9351 -2.2114
        CHANNELS 6 Xposition Yposition Zposition Zrotation Xrotation Yrotation
        JOINT Neck
        {
          OFFSET 0 22.3885 -0.4656
          CHANNELS 6 Xposition Yposition Zposition Zrotation Xrotation Yrotation
          JOINT Head
          {
            OFFSET -0.0001 12.643 3.4389
            CHANNELS 6 Xposition Yposition Zposition Zrotation Xrotation Yrotation
            End Site
            {
              OFFSET 0.0001 17.6655 0.5274
            }
          }
        }
        JOINT LeftCollar
        {
          OFFSET 2.2603 21.606 7.4023
          CHANNELS 6 Xposition Yposition Zposition Zrotation Xrotation Yrotation
          JOINT LeftShoulder
          {
            OFFSET 13.5163 -1.1332 -5.0146
            CHANNELS 6 Xposition Yposition Zposition Zrotation Xrotation Yrotation
            JOINT LeftElbow
            {
              OFFSET -0.0995 -28.05 -0.2431
              CHANNELS 6 Xposition Yposition Zposition Zrotation Xrotation Yrotation
              JOINT LeftWrist
              {
                OFFSET 0.0679 -23.3996 -0.1402
                CHANNELS 6 Xposition Yposition Zposition Zrotation Xrotation Yrotation
                JOINT LeftFinger1
                {
                  OFFSET 0.7932 -9.069 2.5189
                  CHANNELS 6 Xposition Yposition Zposition Zrotation Xrotation Yrotation
                  JOINT LeftFinger11
                  {
                    OFFSET -0.8272 -3.3923 0.5977
                    CHANNELS 6 Xposition Yposition Zposition Zrotation Xrotation Yrotation
                    JOINT LeftFinger12
                    {
                      OFFSET -0.5649 -2.3158 0.4082
                      CHANNELS 6 Xposition Yposition Zposition Zrotation Xrotation Yrotation
                      End Site
                      {
                        OFFSET -0.4919 -1.6479 0.2673
                      }
                    }
                  }
                }
                JOINT LeftFinger2
                {
                  OFFSET 0.9159 -9.2044 0.2193
                  CHANNELS 6 Xposition Yposition Zposition Zrotation Xrotation Yrotation
                  JOINT LeftFinger21
                  {
                    OFFSET 0.0117 -4.1944 -0.0248
                    CHANNELS 6 Xposition Yposition Zposition Zrotation Xrotation Yrotation
                    JOINT LeftFinger22
                    {
                      OFFSET 0.0071 -2.3249 -0.0142
                      CHANNELS 6 Xposition Yposition Zposition Zrotation Xrotation Yrotation
                      End Site
                      {
                        OFFSET -0.1475 -2.0882 0.0028
                      }
                    }
                  }
                }
                JOINT LeftFinger3
                {
                  OFFSET 0.6113 -8.7231 -2.0637
                  CHANNELS 6 Xposition Yposition Zposition Zrotation Xrotation Yrotation
                  JOINT LeftFinger31
                  {
                    OFFSET -0.1927 -3.8059 -0.2383
                    CHANNELS 6 Xposition Yposition Zposition Zrotation Xrotation Yrotation
                    JOINT LeftFinger32
                    {
                      OFFSET -0.1091 -2.1688 -0.1362
                      CHANNELS 6 Xposition Yposition Zposition Zrotation Xrotation Yrotation
                      End Site
                      {
                        OFFSET -0.2358 -1.9176 -0.0906
                      }
                    }
                  }
                }
                JOINT LeftFinger4
                {
                  OFFSET -0.6151 -8.0947 -3.5641
                  CHANNELS 6 Xposition Yposition Zposition Zrotation Xrotation Yrotation
                  JOINT LeftFinger41
                  {
                    OFFSET -0.4882 -2.341 -0.6462
                    CHANNELS 6 Xposition Yposition Zposition Zrotation Xrotation Yrotation
                    JOINT LeftFinger42
                    {
                      OFFSET -0.3575 -1.7167 -0.4742
                      CHANNELS 6 Xposition Yposition Zposition Zrotation Xrotation Yrotation
                      End Site
                      {
                        OFFSET -0.4187 -1.5237 -0.3496
                      }
                    }
                  }
                }
                JOINT LeftFinger0
                {
                  OFFSET -1.42 -1.8761 1.4223
                  CHANNELS 6 Xposition Yposition Zposition Zrotation Xrotation Yrotation
                  JOINT LeftFinger01
                  {
                    OFFSET -1.1471 -3.4929 2.6334
                    CHANNELS 6 Xposition Yposition Zposition Zrotation Xrotation Yrotation
                    JOINT LeftFinger02
                    {
                      OFFSET -0.823 -2.3 1.6571
                      CHANNELS 6 Xposition Yposition Zposition Zrotation Xrotation Yrotation
                      End Site
                      {
                        OFFSET -0.5822 -1.6914 1.1582
                      }
                    }
                  }
                }
              }
            }
          }
        }
        JOINT RightCollar
        {
          OFFSET -2.2603 21.606 7.4023
          CHANNELS 6 Xposition Yposition Zposition Zrotation Xrotation Yrotation
          JOINT RightShoulder
          {
            OFFSET -13.5187 -1.1334 -5.0155
            CHANNELS 6 Xposition Yposition Zposition Zrotation Xrotation Yrotation
            JOINT RightElbow
            {
              OFFSET 0.0994 -28.0499 -0.2431
              CHANNELS 6 Xposition Yposition Zposition Zrotation Xrotation Yrotation
              JOINT RightWrist
              {
                OFFSET -0.0679 -23.3996 -0.1402
                CHANNELS 6 Xposition Yposition Zposition Zrotation Xrotation Yrotation
                JOINT RightFinger1
                {
                  OFFSET -0.7932 -9.0691 2.5189
                  CHANNELS 6 Xposition Yposition Zposition Zrotation Xrotation Yrotation
                  JOINT RightFinger11
                  {
                    OFFSET 0.8272 -3.3923 0.5977
                    CHANNELS 6 Xposition Yposition Zposition Zrotation Xrotation Yrotation
                    JOINT RightFinger12
                    {
                      OFFSET 0.565 -2.3158 0.4082
                      CHANNELS 6 Xposition Yposition Zposition Zrotation Xrotation Yrotation
                      End Site
                      {
                        OFFSET 0.4919 -1.6479 0.2673
                      }
                    }
                  }
                }
                JOINT RightFinger2
                {
                  OFFSET -0.916 -9.2044 0.2193
                  CHANNELS 6 Xposition Yposition Zposition Zrotation Xrotation Yrotation
                  JOINT RightFinger21
                  {
                    OFFSET -0.0117 -4.1944 -0.0248
                    CHANNELS 6 Xposition Yposition Zposition Zrotation Xrotation Yrotation
                    JOINT RightFinger22
                    {
                      OFFSET -0.0071 -2.3249 -0.0142
                      CHANNELS 6 Xposition Yposition Zposition Zrotation Xrotation Yrotation
                      End Site
                      {
                        OFFSET 0.1475 -2.0882 0.0028
                      }
                    }
                  }
                }
                JOINT RightFinger3
                {
                  OFFSET -0.6113 -8.7231 -2.0637
                  CHANNELS 6 Xposition Yposition Zposition Zrotation Xrotation Yrotation
                  JOINT RightFinger31
                  {
                    OFFSET 0.1927 -3.8059 -0.2383
                    CHANNELS 6 Xposition Yposition Zposition Zrotation Xrotation Yrotation
                    JOINT RightFinger32
                    {
                      OFFSET 0.1091 -2.1688 -0.1362
                      CHANNELS 6 Xposition Yposition Zposition Zrotation Xrotation Yrotation
                      End Site
                      {
                        OFFSET 0.2358 -1.9176 -0.0906
                      }
                    }
                  }
                }
                JOINT RightFinger4
                {
                  OFFSET 0.6151 -8.0947 -3.564
                  CHANNELS 6 Xposition Yposition Zposition Zrotation Xrotation Yrotation
                  JOINT RightFinger41
                  {
                    OFFSET 0.4882 -2.341 -0.6462
                    CHANNELS 6 Xposition Yposition Zposition Zrotation Xrotation Yrotation
                    JOINT RightFinger42
                    {
                      OFFSET 0.3574 -1.7166 -0.4742
                      CHANNELS 6 Xposition Yposition Zposition Zrotation Xrotation Yrotation
                      End Site
                      {
                        OFFSET 0.4187 -1.5237 -0.3496
                      }
                    }
                  }
                }
                JOINT RightFinger0
                {
                  OFFSET 1.4199 -1.8761 1.4221
                  CHANNELS 6 Xposition Yposition Zposition Zrotation Xrotation Yrotation
                  JOINT RightFinger01
                  {
                    OFFSET 1.1472 -3.4929 2.6336
                    CHANNELS 6 Xposition Yposition Zposition Zrotation Xrotation Yrotation
                    JOINT RightFinger02
                    {
                      OFFSET 0.8229 -2.3 1.6571
                      CHANNELS 6 Xposition Yposition Zposition Zrotation Xrotation Yrotation
                      End Site
                      {
                        OFFSET 0.5822 -1.6914 1.1582
                      }
                    }
                  }
                }
              }
            }
          }
        }
      }
    }
  }
  JOINT RightHip
  {
    OFFSET -9.412 3.9771 -0.7758
    CHANNELS 6 Xposition Yposition Zposition Zrotation Xrotation Yrotation
    JOINT RightKnee
    {
      OFFSET -0.7531 -40.938 0
      CHANNELS 6 Xposition Yposition Zposition Zrotation Xrotation Yrotation
      JOINT RightAnkle
      {
        OFFSET 0 -40.1986 0
        CHANNELS 6 Xposition Yposition Zposition Zrotation Xrotation Yrotation
        JOINT RightToe
        {
          OFFSET 0 -4.4182 9.239
          CHANNELS 6 Xposition Yposition Zposition Zrotation Xrotation Yrotation
          End Site
          {
            OFFSET 0 0 6.1981
          }
        }
      }
    }
  }
  JOINT LeftHip
  {
    OFFSET 9.4119 3.9773 -0.7758
    CHANNELS 6 Xposition Yposition Zposition Zrotation Xrotation Yrotation
    JOINT LeftKnee
    {
      OFFSET 0.7532 -40.9383 0
      CHANNELS 6 Xposition Yposition Zposition Zrotation Xrotation Yrotation
      JOINT LeftAnkle
      {
        OFFSET 0 -40.1986 0
        CHANNELS 6 Xposition Yposition Zposition Zrotation Xrotation Yrotation
        JOINT LeftToe
        {
          OFFSET 0 -4.4182 9.239
          CHANNELS 6 Xposition Yposition Zposition Zrotation Xrotation Yrotation
          End Site
          {
            OFFSET 0 0 6.1981
          }
        }
      }
    }
  }
}
MOTION
Frames:	4
Frame Time:	0.0333333
5.80788e-005 67.184 3.4734 0 0 -0 0 8.7983 -4.7612 0 0 -0 0 8.0291 0.4195 0 0 -0 0 9.9351 -2.2114 0 0 -0 0 22.3885 -0.4656 0 0 -0 -0.0001 12.643 3.4389 0 0 -0 2.2603 21.606 7.4023 0 0 -12.5014 13.5163 -1.1332 -5.0146 88.1196 14.2451 10.6914 -0.0995 -28.05 -0.2431 -0.00160068 -0.00239207 0.000740045 0.0679 -23.3996 -0.1402 -8.4365e-005 7.00714e-005 -9.52055e-007 0.7932 -9.069 2.5189 9.93923e-017 -1.98785e-016 -1.59028e-015 -0.8272 -3.3923 0.5977 9.93923e-017 -5.96354e-016 -1.59028e-015 -0.5649 -2.3158 0.4082 -9.93923e-017 -5.96354e-016 -1.59028e-015 0.9159 -9.2044 0.2193 9.93923e-017 -1.98785e-016 -1.59028e-015 0.0117 -4.1944 -0.0248 -0.0128176 0.00232552 8.52707e-005 0.0071 -2.3249 -0.0142 9.93923e-017 5.96354e-016 -0 0.6113 -8.7231 -2.0637 9.93923e-017 -1.98785e-016 -1.59028e-015 -0.1927 -3.8059 -0.2383 -0.0160551 0.00299681 0.000857156 -0.1091 -2.1688 -0.1362 -2.48481e-016 0 3.18055e-015 -0.6151 -8.0947 -3.5641 9.93923e-017 -1.98785e-016 -1.59028e-015 -0.4882 -2.341 -0.6462 -0.0125865 0.0031206 0.00282719 -0.3575 -1.7167 -0.4742 0 1.98785e-016 -0 -1.42 -1.8761 1.4223 9.93923e-017 -1.98785e-016 -1.59028e-015 -1.1471 -3.4929 2.6334 9.93923e-017 -5.96354e-016 -1.59028e-015 -0.823 -2.3 1.6571 -9.93923e-017 -5.96354e-016 -1.59028e-015 -2.2603 21.606 7.4023 -0.865644 0.16582 7.03859 -13.5187 -1.1334 -5.0155 -88.0329 10.2057 -10.5567 0.0994 -28.0499 -0.2431 0.0015593 -0.00248883 -0.000788628 -0.0679 -23.3996 -0.1402 7.87605e-005 4.10553e-005 1.24965e-005 -0.7932 -9.0691 2.5189 -3.97569e-016 -7.95139e-016 3.18055e-015 0.8272 -3.3923 0.5977 -1.98785e-016 -3.97569e-016 3.18055e-015 0.565 -2.3158 0.4082 -1.98785e-016 0 3.18055e-015 -0.916 -9.2044 0.2193 -3.97569e-016 -7.95139e-016 3.18055e-015 -0.0117 -4.1944 -0.0248 0.0129473 0.00231697 -8.70038e-005 -0.0071 -2.3249 -0.0142 9.93923e-017 -7.95139e-016 1.59028e-015 -0.6113 -8.7231 -2.0637 -3.97569e-016 -7.95139e-016 3.18055e-015 0.1927 -3.8059 -0.2383 0.0163314 0.00303369 -0.000872333 0.1091 -2.1688 -0.1362 3.97569e-016 7.95139e-016 -3.18055e-015 0.6151 -8.0947 -3.564 -3.97569e-016 -7.95139e-016 3.18055e-015 0.4882 -2.341 -0.6462 0.0145763 0.00367772 -0.00326275 0.3574 -1.7166 -0.4742 9.93923e-017 -3.97569e-016 -0 1.4199 -1.8761 1.4221 -3.97569e-016 -7.95139e-016 3.18055e-015 1.1472 -3.4929 2.6336 -1.98785e-016 -3.97569e-016 3.18055e-015 0.8229 -2.3 1.6571 -1.98785e-016 0 3.18055e-015 -9.412 3.9771 -0.7758 3.42485 1.36937 -0.0640303 -0.7531 -40.938 0 0.000136572 0.69354 0.00145564 1.77636e-015 -40.1986 -1.11022e-016 -3.42573 -2.06297 -0.0607933 8.88178e-016 -4.4182 9.239 -3.19502e-024 0 -1.48106e-024 9.4119 3.9773 -0.7758 -3.42498 1.36123 0.0639712 0.7532 -40.9383 2.22045e-016 -6.769e-005 0.712612 -0.0012277 8.88179e-016 -40.1986 0 3.42582 -2.07388 0.0612819 -8.88178e-016 -4.4182 9.239 2.55305e-023 0 -2.31416e-026 
2.53017 30.3366 29.6901 -1.91294e-015 4.81516e-015 133.333 0 8.7983 -4.7612 0.141246 6.52198 -0.082177 0 8.0291 0.4195 0.294872 13.0437 -0.182417 0 9.9351 -2.2114 0.294879 13.0438 -0.182426 3.55271e-015 22.3885 -0.4656 3.93615e-006 7.24259 -6.54553e-006 -0.0001 12.643 3.4389 -9.38592e-007 -27.3681 -6.16084e-007 2.2603 21.606 7.4023 7.34924 -42.8928 16.9438 13.5163 -1.1332 -5.0146 35.6044 -16.0037 9.18219 -0.0995 -28.05 -0.2431 -89.6721 -79.3663 -121.15 0.0679 -23.3996 -0.1402 -6.61938 3.97695 20.2248 0.7932 -9.069 2.5189 3.18055e-015 -3.18055e-015 -1.59028e-015 -0.8272 -3.3923 0.5977 8.78517e-006 -3.10299e-006 4.70803e-006 -0.5649 -2.3158 0.4082 -3.18055e-015 0 4.77083e-015 0.9159 -9.2044 0.2193 3.18055e-015 -3.18055e-015 -1.59028e-015 0.0117 -4.1944 -0.0248 -0.0127414 0.00231217 8.56823e-005 0.0071 -2.3249 -0.0142 -9.54166e-015 6.36111e-015 -4.77083e-015 0.6113 -8.7231 -2.0637 3.18055e-015 -3.18055e-015 -1.59028e-015 -0.1927 -3.8059 -0.2383 -0.0160225 0.00299604 0.00085975 -0.1091 -2.1688 -0.1362 -4.77083e-015 -3.18055e-015 -6.36111e-015 -0.6151 -8.0947 -3.5641 3.18055e-015 -3.18055e-015 -1.59028e-015 -0.4882 -2.341 -0.6462 -0.0125773 0.00312382 0.0028271 -0.3575 -1.7167 -0.4742 -1.59028e-015 0 1.11319e-014 -1.42 -1.8761 1.4223 3.18055e-015 -3.18055e-015 -1.59028e-015 -1.1471 -3.4929 2.6334 8.78517e-006 -3.10299e-006 4.70803e-006 -0.823 -2.3 1.6571 -3.18055e-015 0 4.77083e-015 -2.2603 21.606 7.4023 2.69282 -29.4709 -14.2629 -13.5187 -1.1334 -5.0155 -36.9139 -11.4057 -8.69075 0.0994 -28.0499 -0.2431 35.8092 -79.1574 24.9543 -0.0679 -23.3996 -0.1402 8.21568 22.1682 -7.10034 -0.7932 -9.0691 2.5189 -2.64834e-031 -4.77083e-015 -3.18055e-015 0.8272 -3.3923 0.5977 -6.36111e-015 7.85418e-006 3.18055e-015 0.565 -2.3158 0.4082 -9.69092e-006 -2.46336e-005 -1.54029e-006 -0.916 -9.2044 0.2193 -2.64834e-031 -4.77083e-015 -3.18055e-015 -0.0117 -4.1944 -0.0248 0.0129231 0.00230194 -8.82894e-005 -0.0071 -2.3249 -0.0142 -1.20506e-005 5.89435e-006 3.02704e-006 -0.6113 -8.7231 -2.0637 -2.64834e-031 -4.77083e-015 -3.18055e-015 0.1927 -3.8059 -0.2383 0.016249 0.00301074 -0.000871737 0.1091 -2.1688 -0.1362 -1.11243e-005 -5.12121e-007 5.91571e-006 0.6151 -8.0947 -3.564 -2.64834e-031 -4.77083e-015 -3.18055e-015 0.4882 -2.341 -0.6462 0.0146134 0.00368418 -0.00327244 0.3574 -1.7166 -0.4742 -8.36309e-006 -9.72714e-006 -2.22936e-008 1.4199 -1.8761 1.4221 -2.64834e-031 -4.77083e-015 -3.18055e-015 1.1472 -3.4929 2.6336 -6.36111e-015 7.85418e-006 3.18055e-015 0.8229 -2.3 1.6571 -9.69092e-006 -2.46336e-005 -1.54029e-006 -9.412 3.9771 -0.7758 -1.21393 0.211185 -2.37303 -0.7531 -40.938 0 -15.7194 76.8956 14.1076 0 -40.1986 -8.88178e-016 -8.36554 36.189 -1.61305 0 -4.4182 9.239 -5.12782e-006 -6.68578e-006 -1.90251e-006 9.4119 3.9773 -0.7758 2.78249 -1.31649 2.4117 0.7532 -40.9383 0 13.6694 76.27 -12.7809 5.32907e-015 -40.1986 -8.88178e-016 9.23995 36.2241 0.979783 0 -4.4182 9.239 3.10068e-006 2.20128e-006 2.33939e-006 
-0.142261 13.7738 43.3605 -8.63487e-015 6.82757e-015 -166.667 -1.77636e-015 8.7983 -4.7612 0.218495 9.32926 -0.109774 -1.77636e-015 8.0291 0.4195 0.464844 18.6581 -0.261482 3.55271e-015 9.9351 -2.2114 0.464846 18.6581 -0.261488 0 22.3885 -0.4656 -1.21288e-006 11.3124 1.47979e-006 -0.0001 12.643 3.4389 -1.01865e-006 -39.8812 -1.88314e-006 2.2603 21.606 7.4023 30.7337 -52.8376 44.0145 13.5163 -1.1332 -5.0146 14.5649 -31.74 7.55394 -0.0995 -28.05 -0.2431 -153.214 -45.8057 160.766 0.0679 -23.3996 -0.1402 -9.69084 5.43177 29.0302 0.7932 -9.069 2.5189 5.13985e-006 4.95748e-006 5.64767e-006 -0.8272 -3.3923 0.5977 4.27952e-007 5.0893e-006 1.66566e-006 -0.5649 -2.3158 0.4082 3.18055e-015 6.36111e-015 -9.54166e-015 0.9159 -9.2044 0.2193 5.13985e-006 4.95748e-006 5.64767e-006 0.0117 -4.1944 -0.0248 -0.0128173 0.00232205 8.17423e-005 0.0071 -2.3249 -0.0142 -6.36111e-015 1.27222e-014 -6.36111e-015 0.6113 -8.7231 -2.0637 5.13985e-006 4.95748e-006 5.64767e-006 -0.1927 -3.8059 -0.2383 -0.0160163 0.00298467 0.000857775 -0.1091 -2.1688 -0.1362 1.76556e-031 -3.18055e-015 3.18055e-015 -0.6151 -8.0947 -3.5641 5.13985e-006 4.95748e-006 5.64767e-006 -0.4882 -2.341 -0.6462 -0.0125991 0.00311005 0.00282586 -0.3575 -1.7167 -0.4742 4.40909e-006 1.32562e-006 -1.94794e-006 -1.42 -1.8761 1.4223 5.13985e-006 4.95748e-006 5.64767e-006 -1.1471 -3.4929 2.6334 4.27952e-007 5.0893e-006 1.66566e-006 -0.823 -2.3 1.6571 3.18055e-015 6.36111e-015 -9.54166e-015 -2.2603 21.606 7.4023 -4.1139 -39.2623 -28.2611 -13.5187 -1.1334 -5.0155 -14.8833 -22.3074 -7.07172 0.0994 -28.0499 -0.2431 124.809 -55.5088 111.924 -0.0679 -23.3996 -0.1402 11.6832 32.1971 -9.69421 -0.7932 -9.0691 2.5189 -3.18055e-015 2.38542e-015 -4.37326e-015 0.8272 -3.3923 0.5977 -6.36111e-015 -7.95139e-016 -1.59028e-015 0.565 -2.3158 0.4082 3.18055e-015 2.38542e-015 2.78299e-015 -0.916 -9.2044 0.2193 -3.18055e-015 2.38542e-015 -4.37326e-015 -0.0117 -4.1944 -0.0248 0.0129518 0.00231119 -8.96641e-005 -0.0071 -2.3249 -0.0142 3.18055e-015 -1.43125e-014 -3.18055e-015 -0.6113 -8.7231 -2.0637 -3.18055e-015 2.38542e-015 -4.37326e-015 0.1927 -3.8059 -0.2383 0.0163226 0.0030324 -0.000875071 0.1091 -2.1688 -0.1362 3.18055e-015 -3.97569e-015 -1.59028e-015 0.6151 -8.0947 -3.564 -3.18055e-015 2.38542e-015 -4.37326e-015 0.4882 -2.341 -0.6462 0.0145834 0.00368471 -0.00325522 0.3574 -1.7166 -0.4742 3.18055e-015 0 -4.77083e-015 1.4199 -1.8761 1.4221 -3.18055e-015 2.38542e-015 -4.37326e-015 1.1472 -3.4929 2.6336 -6.36111e-015 -7.95139e-016 -1.59028e-015 0.8229 -2.3 1.6571 3.18055e-015 2.38542e-015 2.78299e-015 -9.412 3.9771 -0.7758 -3.08223 -0.256239 -4.27688 -0.7531 -40.938 7.10543e-015 -165.646 69.1041 161.375 -3.55271e-015 -40.1986 0 -8.49767 55.2112 -4.2475 0 -4.4182 9.239 -7.95139e-016 0 3.18055e-015 9.4119 3.9773 -0.7758 5.27489 -2.43654 4.22541 0.7532 -40.9383 -7.10543e-015 164.556 70.0494 -161.352 0 -40.1986 -7.10543e-015 10.3456 55.3027 2.91464 -1.11022e-015 -4.4182 9.239 -1.81352e-006 -1.88095e-006 -1.31285e-007 
0.476005 17.365 40.2056 -7.01671e-015 7.01671e-015 180 5.55112e-017 8.7983 -4.7612 0.200789 8.42134 -0.101137 0 8.0291 0.4195 0.423791 16.8423 -0.23639 1.66533e-016 9.9351 -2.2114 0.423793 16.8423 -0.236391 -2.22045e-016 22.3885 -0.4656 -1.43793e-006 12.2107 8.00124e-007 -0.0001 12.643 3.4389 -4.60292e-007 -37.5391 -2.13208e-007 2.2603 21.606 7.4023 22.4363 -51.1695 34.7774 13.5163 -1.1332 -5.0146 19.4481 -27.9828 8.35123 -0.0995 -28.05 -0.2431 -149.91 -55.2399 167.261 0.0679 -23.3996 -0.1402 -9.40003 4.49734 26.3066 0.7932 -9.069 2.5189 -6.36111e-015 -1.59028e-014 9.54166e-015 -0.8272 -3.3923 0.5977 -3.18055e-015 -6.36111e-015 -0 -0.5649 -2.3158 0.4082 -7.06225e-031 -6.36111e-015 -6.36111e-015 0.9159 -9.2044 0.2193 -6.36111e-015 -1.59028e-014 9.54166e-015 0.0117 -4.1944 -0.0248 -0.012848 0.00232707 9.06094e-005 0.0071 -2.3249 -0.0142 -3.18055e-015 1.59028e-014 -1.27222e-014 0.6113 -8.7231 -2.0637 -6.36111e-015 -1.59028e-014 9.54166e-015 -0.1927 -3.8059 -0.2383 -0.0160931 0.00299606 0.000850555 -0.1091 -2.1688 -0.1362 3.18055e-015 6.36111e-015 -6.36111e-015 -0.6151 -8.0947 -3.5641 -6.36111e-015 -1.59028e-014 9.54166e-015 -0.4882 -2.341 -0.6462 -0.0126039 0.00312513 0.002821 -0.3575 -1.7167 -0.4742 3.18055e-015 6.36111e-015 -0 -1.42 -1.8761 1.4223 -6.36111e-015 -1.59028e-014 9.54166e-015 -1.1471 -3.4929 2.6334 -3.18055e-015 -6.36111e-015 -0 -0.823 -2.3 1.6571 -7.06225e-031 -6.36111e-015 -6.36111e-015 -2.2603 21.606 7.4023 -1.50338 -36.7656 -24.1403 -13.5187 -1.1334 -5.0155 -19.8924 -19.7304 -7.66213 0.0994 -28.0499 -0.2431 122.26 -63.4762 109.706 -0.0679 -23.3996 -0.1402 11.1246 30.1386 -8.6759 -0.7932 -9.0691 2.5189 -1.59028e-015 -1.59028e-015 -3.57812e-015 0.8272 -3.3923 0.5977 -2.38542e-015 -1.59028e-015 -3.97569e-015 0.565 -2.3158 0.4082 -7.95139e-016 -1.59028e-015 7.95139e-016 -0.916 -9.2044 0.2193 -1.59028e-015 -1.59028e-015 -3.57812e-015 -0.0117 -4.1944 -0.0248 0.0129544 0.00232797 -8.4909e-005 -0.0071 -2.3249 -0.0142 -7.95139e-016 -1.27222e-014 7.95139e-016 -0.6113 -8.7231 -2.0637 -1.59028e-015 -1.59028e-015 -3.57812e-015 0.1927 -3.8059 -0.2383 0.0163377 0.00303268 -0.000869784 0.1091 -2.1688 -0.1362 2.12835e-006 1.10621e-005 2.12733e-006 0.6151 -8.0947 -3.564 -1.59028e-015 -1.59028e-015 -3.57812e-015 0.4882 -2.341 -0.6462 0.0145915 0.00368624 -0.00327316 0.3574 -1.7166 -0.4742 -7.95139e-016 3.18055e-015 3.97569e-016 1.4199 -1.8761 1.4221 -1.59028e-015 -1.59028e-015 -3.57812e-015 1.1472 -3.4929 2.6336 -2.38542e-015 -1.59028e-015 -3.97569e-015 0.8229 -2.3 1.6571 -7.95139e-016 -1.59028e-015 7.95139e-016 -9.412 3.9771 -0.7758 -2.68892 -0.550307 -3.78937 -0.7531 -40.938 0 -160.021 75.6102 156.488 0 -40.1986 0 -8.96121 51.013 -3.19536 0 -4.4182 9.239 -3.85438e-007 1.46962e-006 1.79926e-007 9.4119 3.9773 -0.7758 4.55082 -2.39228 3.76149 0.7532 -40.9383 7.10543e-015 158.586 76.4974 -155.971 -1.77636e-015 -40.1986 3.55271e-015 10.5254 51.0983 2.07682 0 -4.4182 9.239 -3.54877e-007 -2.1184e-006 1.11783e-006 
